@startuml index

'Wav2Bar - Free software for creating audio visualization (motion design) videos
'Copyright (C) 2023  Picorims <picorims.contact@gmail.com>

'This program is free software: you can redistribute it and/or modify
'it under the terms of the GNU General Public License as published by
'the Free Software Foundation, either version 3 of the License, or
'any later version.

'This program is distributed in the hope that it will be useful,
'but WITHOUT ANY WARRANTY; without even the implied warranty of
'MERCHANTABILITY or FITNESS FOR A PARTICULAR PURPOSE.  See the
'GNU General Public License for more details.

'You should have received a copy of the GNU General Public License
'along with this program.  If not, see <https://www.gnu.org/licenses/>.

!theme cyborg-outline
skinparam BackgroundColor #222222
' skinparam groupInheritance 2
skinparam PackageStyle frame

package "visual_objects" {
    class VisualObject {}
}

package "event_mixin" {
    class EventMixin <<mixin>> {}
}

package "ui_components" {
    class ObjectFrame {}
}

package "index" {
    class SaveHandler {
        - _owner_project: Project
        - _CURRENT_SAVE_VERSION: Integer
        - _save_data: Object
        - _lock_save_sync: Boolean
        - _objects: Object{VisualObject}
        --
        + SaveHandler(): SaveHandler
        ..get, set..
        + set owner_project(owner_project: Project): void
        + get owner_project(): Project
        + get save_data(): Object
        + set save_data(save_data: Object): void
        + get objects(): Object
        + set screen(screen: Object): void
        + get fps(): Integer
        + set fps(fps: Integer): void
        ..
        + rewriteSoftwareInfo(): void
        + loadDefaultSave(): void
        + async loadSave(save_file_path: string): void
        + convertSave(log_array: Array = [], no_dialog: Boolean): void
        + convertObjV3ToV4(old_object: Object, save: Object): void
        + applyLoadedSave(): void
        + exportSaveAsJSON(): void
        + exportSave(save_path: String, no_dialog: Boolean = false): void
        
        + createVisualObject(type: String, name: String = null, obj_id: String = ""): void
        + addVisualObject(object: VisualObject): void
        + deleteVisualObject(id: String): void
        + deleteAllVisualObjects(): void
        + getVisualObjectData(id: String): void
        + mergeVisualObjectData(id: String, data: Object): void
        + getVisualObjectIDs(): Array[String]
        + async saveObjectBackgroundImage(path: String, obj_id: String): Object

        + async saveAudio(path: String): void
    }
    SaveHandler "1 _save_handler" -- "1 _owner_project" Project
    SaveHandler "1 _save_handler" o-left- "0..n _objects" VisualObject
    SaveHandler .up. EventMixin: with

    class Project {
        - _save_handler: SaveHandler
        - _user_interface: UserInterface

        - _working_dir: String
        - _root_dir: String
        - _os: String
        - _export_mode: Boolean

        - _stop_animating: Boolean
        - _animating: Boolean

        - _frame_count: Integer
        - _fps_array: Array
        - _fps_interval: Float
        - _FPS_ARRAY_MAX_LENGTH: Integer

        - _time: Object

        - _current_time: Float
        - _audio_duration: Float
        - _frequency_array: Array[Float]
        - _vol_frequency_array: Array[Float]
        - _vol_prev_frequency_array: Array[Float]
        - _volume: Float
    
        - _objects_callback: Array[Boolean]

        - _audio: HTMLAudioElement
        - _audio_file_type: String
        - _audio_file: File
        - _source: MediaElementAudioSourceNode
        - _context: AudioContext
        - _analyser: AnalyserNode
        - _ctx_frequency_array: Uint8Array
        --
        + Project(export_mode: Boolean): Project
        ..get, set..
        + get save_handler(): SaveHandler
        + set save_handler(save_handler: SaveHandler): void
        + get user_interface(): UserInterface
        + set user_interface(user_interface: UserInterface): void

        + get working_dir(): String
        + get root_dir(): String
        + get export_mode(): Boolean
        + get os(): String

        + get volume(): Float
        + get screen(): HTMLDivElement
        + get audio_file_type(): String
        + set audio_file_type(audio_file_type: String): void

        + get frequency_array(): Array[Float]
        + set frequency_array(frequency_array: Array[Float]): void
        ..
        + addToFrequencyArray(value: Float): void
        + playVisuals(): void
        + pauseVisuals(): void
        + stopVisuals(): void
        + startAnimating(fps: Integer): void
        + stopAnimating(): void
        + animate(): void
        + updateFinished(): Boolean
        + drawFrame(): void

        + loadAudio(file_data: any, type: String): void
        + closeAudio(): void
        + audioReady(): Boolean
        + getAudioDuration(): Float
        + audioToStart(): void
        + audioToEnd(): void
        + setAudioCurrentTime(currentTime: Float): void
        + getAudioCurrentTime(): Float
        + audioLoopToggle(): void
        + getAudioIsLooping(): Boolean
        + getFrequencyArray(): Array[Float]

        + updateFPSDisplay(): void
        + setFPS(fps: Integer): void
    }

    class UserInterface {
        - _screen: HTMLDivElement
        - _object_frame: ObjectFrame
        - _owner_project: Project
        - _loading_frame: UILoadingFrame
        --
        + UserInterface(owner_project: Project): UserInterface
        ..get, set..
        + get screen(): HTMLDivElement
        + set owner_project(owner_project: Project): void
        ..
        + async FileBrowserDialog(settings: Object, callback: Function, args: any): void
        + loadingMode(is_loading: boolean): void
    }
    UserInterface "1 _user_interface" -- "1 _owner_project" Project
    UserInterface "1 _user_interface" -- "1 _object_frame" ObjectFrame
}